<svg data-v-423bf9ae="" xmlns="http://www.w3.org/2000/svg" viewBox="0 0 353 90" class="iconLeft"><!----><!----><!----><g data-v-423bf9ae="" id="29d5e61e-08ac-41b9-9567-4be148896c29" fill="#1E2314" transform="matrix(4.8701300621032715,0,0,4.8701300621032715,104.59415435791016,2.7272696495056152)"><path d="M1.11 12.29L1.11 2.69L2.44 2.69L2.44 6.80L7.67 6.80L7.67 2.69L9.00 2.69L9.00 12.29L7.67 12.29L7.67 7.97L2.44 7.97L2.44 12.29L1.11 12.29ZM11.75 14.84Q11.13 14.84 10.77 14.73L10.77 14.73L10.77 13.93L11.26 13.93Q12.68 13.93 13.13 12.29L13.13 12.29L10.29 4.93L11.59 4.93L12.96 8.61Q13.16 9.13 13.42 9.90Q13.68 10.68 13.76 10.92L13.76 10.92L13.83 10.92Q13.90 10.68 14.09 10.02Q14.28 9.37 14.52 8.61L14.52 8.61L15.69 4.93L16.93 4.93L14.50 11.91Q14.01 13.31 13.39 14.08Q12.77 14.84 11.75 14.84L11.75 14.84ZM22.29 8.46L22.29 7.29L27.01 7.29L27.01 12.29L25.97 12.29L25.87 11.23Q24.78 12.46 22.53 12.46L22.53 12.46Q20.17 12.46 18.97 11.22Q17.77 9.98 17.77 7.49L17.77 7.49Q17.77 2.52 22.61 2.52L22.61 2.52Q24.60 2.52 25.80 3.40Q27.01 4.28 27.01 5.96L27.01 5.96L25.65 5.96Q25.65 4.80 24.84 4.23Q24.02 3.65 22.61 3.65L22.61 3.65Q20.86 3.65 20.01 4.55Q19.15 5.45 19.15 7.49L19.15 7.49L19.15 7.52Q19.17 9.55 20.00 10.44Q20.83 11.33 22.53 11.33L22.53 11.33Q24.15 11.33 24.91 10.65Q25.68 9.98 25.68 8.60L25.68 8.60L25.68 8.46L22.29 8.46ZM32.06 12.46Q30.28 12.46 29.41 11.52Q28.55 10.58 28.55 8.61L28.55 8.61Q28.55 6.64 29.41 5.70Q30.28 4.76 32.06 4.76L32.06 4.76Q33.66 4.76 34.45 5.61Q35.24 6.45 35.24 8.33L35.24 8.33L35.24 8.95L29.82 8.95Q29.89 10.22 30.43 10.83Q30.97 11.44 32.06 11.44L32.06 11.44Q32.94 11.44 33.49 11.03Q34.03 10.63 34.03 9.79L34.03 9.79L35.24 9.79Q35.24 11.07 34.35 11.77Q33.46 12.46 32.06 12.46L32.06 12.46ZM29.85 7.92L33.95 7.92Q33.95 5.78 32.06 5.78L32.06 5.78Q31.01 5.78 30.48 6.29Q29.96 6.79 29.85 7.92L29.85 7.92ZM36.72 12.29L36.72 4.93L37.66 4.93L37.80 5.92L37.90 5.92Q38.71 4.76 40.38 4.76L40.38 4.76Q41.48 4.76 42.08 5.35Q42.67 5.95 42.67 7.27L42.67 7.27L42.67 12.29L41.44 12.29L41.44 7.35Q41.44 6.47 41.05 6.13Q40.66 5.78 39.91 5.78L39.91 5.78Q39.38 5.78 38.93 6.04Q38.49 6.30 38.22 6.79Q37.95 7.28 37.95 7.94L37.95 7.94L37.95 12.29L36.72 12.29ZM47.63 12.46Q45.85 12.46 44.98 11.52Q44.11 10.58 44.11 8.61L44.11 8.61Q44.11 6.64 44.98 5.70Q45.85 4.76 47.63 4.76L47.63 4.76Q49.22 4.76 50.02 5.61Q50.81 6.45 50.81 8.33L50.81 8.33L50.81 8.95L45.39 8.95Q45.46 10.22 46.00 10.83Q46.54 11.44 47.63 11.44L47.63 11.44Q48.51 11.44 49.06 11.03Q49.60 10.63 49.60 9.79L49.60 9.79L50.81 9.79Q50.81 11.07 49.92 11.77Q49.03 12.46 47.63 12.46L47.63 12.46ZM45.42 7.92L49.52 7.92Q49.52 5.78 47.63 5.78L47.63 5.78Q46.58 5.78 46.05 6.29Q45.53 6.79 45.42 7.92L45.42 7.92Z"></path></g><defs data-v-423bf9ae=""><linearGradient data-v-423bf9ae="" gradientTransform="rotate(25)" id="dcc3be0f-688b-4714-abad-5aaf5fa884d5" x1="0%" y1="0%" x2="100%" y2="0%"><stop data-v-423bf9ae="" offset="0%" style="stop-color: rgb(253, 146, 69); stop-opacity: 1;"></stop><stop data-v-423bf9ae="" offset="100%" style="stop-color: rgb(6, 169, 107); stop-opacity: 1;"></stop></linearGradient></defs><g data-v-423bf9ae="" id="fa8ef254-8dc7-49dc-a6a4-71d4b4fe4c6e" transform="matrix(2.8125,0,0,2.8125,0,0)" stroke="none" fill="url(#dcc3be0f-688b-4714-abad-5aaf5fa884d5)"><path d="M9.571 20.464l8.064 4.47 8.065-4.47v-8.939l-8.065-4.469-8.064 4.469z"></path><path d="M32 0H0v32h32l-5.054-5.172H5.054V5.172h21.892z"></path></g><!----></svg>